dataset
version=1
nRows=22
nColumns=39
inDegrees=no
endheader
time	sternoclavicular_r2	sternoclavicular_r3	unrotscap_r3	unrotscap_r2	acromioclavicular_r2	acromioclavicular_r3	acromioclavicular_r1	unrothum_r1	unrothum_r3	unrothum_r2	elv_angle	shoulder_elv	shoulder1_r2	shoulder_rot	elbow_flexion	pro_sup	deviation	flexion	cmc_abduction	cmc_flexion	mp_flexion	ip_flexion	mcp2_flexion	mcp2_abduction	pm2_flexion	md2_flexion	mcp3_flexion	mcp3_abduction	pm3_flexion	md3_flexion	mcp4_flexion	mcp4_abduction	pm4_flexion	md4_flexion	mcp5_flexion	mcp5_abduction	pm5_flexion	md5_flexion
2.655000	-0.056073	-0.552174	0.359642	0.176825	0.132590	0.221278	-0.282647	0.139563	-0.126444	0.141555	0.110959	0.027437	0.146525	0.146525	0.798501	-0.079089	0.000000	0.000000	0.000000	0.000000	0.000000	0.000000	0.000000	0.000000	0.000000	0.000000	0.000000	0.000000	0.000000	0.000000	0.000000	0.000000	0.000000	0.000000	0.000000	0.000000	0.000000	0.000000
2.660000	-0.056188	-0.552262	0.359768	0.177033	0.132818	0.221192	-0.282801	0.139639	-0.126537	0.141809	0.111178	0.027437	0.146525	0.146525	0.798742	-0.093814	0.000000	0.000000	0.000000	0.000000	0.000000	0.000000	0.000000	0.000000	0.000000	0.000000	0.000000	0.000000	0.000000	0.000000	0.000000	0.000000	0.000000	0.000000	0.000000	0.000000	0.000000	0.000000
2.665000	-0.056304	-0.552350	0.359897	0.177241	0.133046	0.221105	-0.282958	0.139714	-0.126632	0.142064	0.111397	0.027437	0.146525	0.146525	0.798999	-0.108569	0.000000	0.000000	0.000000	0.000000	0.000000	0.000000	0.000000	0.000000	0.000000	0.000000	0.000000	0.000000	0.000000	0.000000	0.000000	0.000000	0.000000	0.000000	0.000000	0.000000	0.000000	0.000000
2.670000	-0.056421	-0.552438	0.360027	0.177449	0.133274	0.221017	-0.283117	0.139789	-0.126729	0.142319	0.111616	0.027437	0.146525	0.146525	0.799272	-0.123351	0.000000	0.000000	0.000000	0.000000	0.000000	0.000000	0.000000	0.000000	0.000000	0.000000	0.000000	0.000000	0.000000	0.000000	0.000000	0.000000	0.000000	0.000000	0.000000	0.000000	0.000000	0.000000
2.675000	-0.056538	-0.552527	0.360158	0.177656	0.133501	0.220927	-0.283279	0.139864	-0.126829	0.142574	0.111833	0.027437	0.146525	0.146525	0.799561	-0.138155	0.000000	0.000000	0.000000	0.000000	0.000000	0.000000	0.000000	0.000000	0.000000	0.000000	0.000000	0.000000	0.000000	0.000000	0.000000	0.000000	0.000000	0.000000	0.000000	0.000000	0.000000	0.000000
2.680000	-0.056656	-0.552616	0.360292	0.177863	0.133728	0.220836	-0.283443	0.139940	-0.126932	0.142829	0.112050	0.027437	0.146525	0.146525	0.799867	-0.152980	0.000000	0.000000	0.000000	0.000000	0.000000	0.000000	0.000000	0.000000	0.000000	0.000000	0.000000	0.000000	0.000000	0.000000	0.000000	0.000000	0.000000	0.000000	0.000000	0.000000	0.000000	0.000000
2.685000	-0.056775	-0.552706	0.360427	0.178069	0.133955	0.220743	-0.283609	0.140015	-0.127038	0.143083	0.112266	0.027437	0.146525	0.146525	0.800189	-0.167821	0.000000	0.000000	0.000000	0.000000	0.000000	0.000000	0.000000	0.000000	0.000000	0.000000	0.000000	0.000000	0.000000	0.000000	0.000000	0.000000	0.000000	0.000000	0.000000	0.000000	0.000000	0.000000
2.690000	-0.056895	-0.552795	0.360563	0.178275	0.134182	0.220649	-0.283777	0.140091	-0.127147	0.143338	0.112480	0.027437	0.146525	0.146525	0.800528	-0.182676	0.000000	0.000000	0.000000	0.000000	0.000000	0.000000	0.000000	0.000000	0.000000	0.000000	0.000000	0.000000	0.000000	0.000000	0.000000	0.000000	0.000000	0.000000	0.000000	0.000000	0.000000	0.000000
2.695000	-0.057015	-0.552886	0.360701	0.178480	0.134408	0.220555	-0.283948	0.140167	-0.127259	0.143592	0.112694	0.027437	0.146525	0.146525	0.800885	-0.197540	0.000000	0.000000	0.000000	0.000000	0.000000	0.000000	0.000000	0.000000	0.000000	0.000000	0.000000	0.000000	0.000000	0.000000	0.000000	0.000000	0.000000	0.000000	0.000000	0.000000	0.000000	0.000000
2.700000	-0.057136	-0.552977	0.360841	0.178684	0.134633	0.220459	-0.284121	0.140243	-0.127373	0.143845	0.112906	0.027437	0.146525	0.146525	0.801259	-0.212410	0.000000	0.000000	0.000000	0.000000	0.000000	0.000000	0.000000	0.000000	0.000000	0.000000	0.000000	0.000000	0.000000	0.000000	0.000000	0.000000	0.000000	0.000000	0.000000	0.000000	0.000000	0.000000
2.705000	-0.057257	-0.553068	0.360982	0.178887	0.134858	0.220362	-0.284296	0.140320	-0.127490	0.144098	0.113117	0.027437	0.146525	0.146525	0.801651	-0.227283	0.000000	0.000000	0.000000	0.000000	0.000000	0.000000	0.000000	0.000000	0.000000	0.000000	0.000000	0.000000	0.000000	0.000000	0.000000	0.000000	0.000000	0.000000	0.000000	0.000000	0.000000	0.000000
2.710000	-0.057379	-0.553160	0.361124	0.179089	0.135082	0.220263	-0.284474	0.140397	-0.127611	0.144350	0.113326	0.027437	0.146525	0.146525	0.802061	-0.242155	0.000000	0.000000	0.000000	0.000000	0.000000	0.000000	0.000000	0.000000	0.000000	0.000000	0.000000	0.000000	0.000000	0.000000	0.000000	0.000000	0.000000	0.000000	0.000000	0.000000	0.000000	0.000000
2.715000	-0.057501	-0.553253	0.361268	0.179290	0.135305	0.220164	-0.284653	0.140474	-0.127734	0.144601	0.113534	0.027437	0.146525	0.146525	0.802488	-0.257023	0.000000	0.000000	0.000000	0.000000	0.000000	0.000000	0.000000	0.000000	0.000000	0.000000	0.000000	0.000000	0.000000	0.000000	0.000000	0.000000	0.000000	0.000000	0.000000	0.000000	0.000000	0.000000
2.720000	-0.057624	-0.553347	0.361413	0.179491	0.135527	0.220064	-0.284834	0.140552	-0.127860	0.144851	0.113740	0.027437	0.146525	0.146525	0.802935	-0.271883	0.000000	0.000000	0.000000	0.000000	0.000000	0.000000	0.000000	0.000000	0.000000	0.000000	0.000000	0.000000	0.000000	0.000000	0.000000	0.000000	0.000000	0.000000	0.000000	0.000000	0.000000	0.000000
2.725000	-0.057747	-0.553442	0.361560	0.179689	0.135748	0.219963	-0.285018	0.140630	-0.127989	0.145100	0.113944	0.027437	0.146525	0.146525	0.803399	-0.286732	0.000000	0.000000	0.000000	0.000000	0.000000	0.000000	0.000000	0.000000	0.000000	0.000000	0.000000	0.000000	0.000000	0.000000	0.000000	0.000000	0.000000	0.000000	0.000000	0.000000	0.000000	0.000000
2.730000	-0.057871	-0.553537	0.361708	0.179887	0.135967	0.219861	-0.285203	0.140709	-0.128121	0.145347	0.114147	0.027437	0.146525	0.146525	0.803883	-0.301568	0.000000	0.000000	0.000000	0.000000	0.000000	0.000000	0.000000	0.000000	0.000000	0.000000	0.000000	0.000000	0.000000	0.000000	0.000000	0.000000	0.000000	0.000000	0.000000	0.000000	0.000000	0.000000
2.735000	-0.057995	-0.553634	0.361856	0.180083	0.136186	0.219758	-0.285389	0.140789	-0.128256	0.145594	0.114347	0.027437	0.146525	0.146525	0.804385	-0.316385	0.000000	0.000000	0.000000	0.000000	0.000000	0.000000	0.000000	0.000000	0.000000	0.000000	0.000000	0.000000	0.000000	0.000000	0.000000	0.000000	0.000000	0.000000	0.000000	0.000000	0.000000	0.000000
2.740000	-0.058119	-0.553731	0.362006	0.180278	0.136403	0.219654	-0.285578	0.140869	-0.128394	0.145838	0.114545	0.027437	0.146525	0.146525	0.804906	-0.331181	0.000000	0.000000	0.000000	0.000000	0.000000	0.000000	0.000000	0.000000	0.000000	0.000000	0.000000	0.000000	0.000000	0.000000	0.000000	0.000000	0.000000	0.000000	0.000000	0.000000	0.000000	0.000000
2.745000	-0.058243	-0.553830	0.362157	0.180471	0.136618	0.219550	-0.285767	0.140950	-0.128535	0.146082	0.114742	0.027437	0.146525	0.146525	0.805446	-0.345953	0.000000	0.000000	0.000000	0.000000	0.000000	0.000000	0.000000	0.000000	0.000000	0.000000	0.000000	0.000000	0.000000	0.000000	0.000000	0.000000	0.000000	0.000000	0.000000	0.000000	0.000000	0.000000
2.750000	-0.058368	-0.553929	0.362309	0.180662	0.136832	0.219444	-0.285959	0.141031	-0.128679	0.146323	0.114936	0.027437	0.146525	0.146525	0.806005	-0.360698	0.000000	0.000000	0.000000	0.000000	0.000000	0.000000	0.000000	0.000000	0.000000	0.000000	0.000000	0.000000	0.000000	0.000000	0.000000	0.000000	0.000000	0.000000	0.000000	0.000000	0.000000	0.000000
2.755000	-0.058493	-0.554030	0.362461	0.180851	0.137044	0.219338	-0.286151	0.141113	-0.128825	0.146563	0.115127	0.027437	0.146525	0.146525	0.806584	-0.375411	0.000000	0.000000	0.000000	0.000000	0.000000	0.000000	0.000000	0.000000	0.000000	0.000000	0.000000	0.000000	0.000000	0.000000	0.000000	0.000000	0.000000	0.000000	0.000000	0.000000	0.000000	0.000000
2.760000	-0.058618	-0.554131	0.362614	0.181039	0.137255	0.219231	-0.286345	0.141195	-0.128975	0.146801	0.115316	0.027437	0.146525	0.146525	0.807182	-0.390091	0.000000	0.000000	0.000000	0.000000	0.000000	0.000000	0.000000	0.000000	0.000000	0.000000	0.000000	0.000000	0.000000	0.000000	0.000000	0.000000	0.000000	0.000000	0.000000	0.000000	0.000000	0.000000
